<svg width="200" height="50" viewBox="0 0 200 50" xmlns="http://www.w3.org/2000/svg">
  <!-- Icono 1: Teclado + Velocidad -->
  <g id="icon1" transform="translate(10, 5)">
    <rect x="0" y="0" width="8" height="6" rx="1" fill="white" opacity="0.9"/>
    <rect x="9" y="0" width="8" height="6" rx="1" fill="white" opacity="0.7"/>
    <rect x="18" y="0" width="8" height="6" rx="1" fill="white" opacity="0.5"/>
    <rect x="27" y="0" width="8" height="6" rx="1" fill="white" opacity="0.3"/>
    <path d="M0 8 L35 8" stroke="white" stroke-width="1" opacity="0.6"/>
    <path d="M0 10 L30 10" stroke="white" stroke-width="1" opacity="0.4"/>
    <path d="M0 12 L25 12" stroke="white" stroke-width="1" opacity="0.2"/>
  </g>

  <!-- Icono 2: Letras + Flechas -->
  <g id="icon2" transform="translate(55, 5)">
    <text x="0" y="8" font-family="Arial" font-size="8" font-weight="bold" fill="white">A</text>
    <text x="8" y="8" font-family="Arial" font-size="8" font-weight="bold" fill="white" opacity="0.8">B</text>
    <text x="16" y="8" font-family="Arial" font-size="8" font-weight="bold" fill="white" opacity="0.6">C</text>
    <path d="M24 4 L28 8 L24 12" stroke="white" stroke-width="1.5" fill="none"/>
    <path d="M28 8 L32 8" stroke="white" stroke-width="1.5"/>
  </g>

  <!-- Icono 3: Manos + Texto -->
  <g id="icon3" transform="translate(100, 5)">
    <!-- Mano izquierda -->
    <ellipse cx="8" cy="8" rx="3" ry="5" fill="white" opacity="0.8"/>
    <ellipse cx="6" cy="6" rx="1" ry="2" fill="white" opacity="0.6"/>
    <ellipse cx="10" cy="6" rx="1" ry="2" fill="white" opacity="0.6"/>
    <!-- Mano derecha -->
    <ellipse cx="22" cy="8" rx="3" ry="5" fill="white" opacity="0.8"/>
    <ellipse cx="20" cy="6" rx="1" ry="2" fill="white" opacity="0.6"/>
    <ellipse cx="24" cy="6" rx="1" ry="2" fill="white" opacity="0.6"/>
    <!-- Líneas de texto -->
    <path d="M8 15 L22 15" stroke="white" stroke-width="1" opacity="0.7"/>
    <path d="M10 17 L20 17" stroke="white" stroke-width="1" opacity="0.5"/>
  </g>

  <!-- Icono 4: D Estilizada -->
  <g id="icon4" transform="translate(145, 5)">
    <path d="M0 0 L0 16 L12 16 Q16 16 16 12 L16 4 Q16 0 12 0 Z" fill="white" opacity="0.9"/>
    <rect x="2" y="2" width="2" height="2" rx="0.5" fill="none" stroke="white" stroke-width="0.5" opacity="0.7"/>
    <rect x="5" y="2" width="2" height="2" rx="0.5" fill="none" stroke="white" stroke-width="0.5" opacity="0.7"/>
    <rect x="8" y="2" width="2" height="2" rx="0.5" fill="none" stroke="white" stroke-width="0.5" opacity="0.7"/>
    <rect x="2" y="5" width="2" height="2" rx="0.5" fill="none" stroke="white" stroke-width="0.5" opacity="0.7"/>
    <rect x="5" y="5" width="2" height="2" rx="0.5" fill="none" stroke="white" stroke-width="0.5" opacity="0.7"/>
    <rect x="8" y="5" width="2" height="2" rx="0.5" fill="none" stroke="white" stroke-width="0.5" opacity="0.7"/>
  </g>
</svg>
